<?xml version="1.0"?>
<svg xmlns="http://www.w3.org/2000/svg" height="512px" viewBox="0 0 512 512" width="512px"><path d="m241 512v-154.636719l-66.972656-66.96875c-22.882813-22.886719-56.210938-27.460937-83.027344-15.753906v-78.640625c0-41.457031-34.535156-75-76-75h-15v217.304688l121 120v53.695312zm-211-186.195312v-172.246094c17.835938 6.242187 31 23.160156 31 42.441406v102.960938l-2.519531 3.152343 84.492187 84.492188 21.210938-21.210938-62.59375-62.59375c16.300781-7.808593 37.058594-5.359375 51.226562 8.804688l58.183594 58.1875v112.207031h-60v-36.195312zm0 0" fill="#ffce1b"/><path d="m421 196v78.640625c-26.796875-11.699219-60.097656-7.175781-83.027344 15.753906l-66.972656 66.96875v154.636719h120v-53.695312l121-120v-217.304688h-15c-41.457031 0-76 33.535156-76 75zm61 129.804688-121 120v36.195312h-60v-112.207031l58.183594-58.1875c14.109375-14.105469 34.835937-16.65625 51.226562-8.804688l-62.59375 62.59375 21.210938 21.210938 84.496094-84.492188-2.523438-3.152343v-102.960938c0-19.28125 13.164062-36.199219 31-42.441406zm0 0" fill="#ffce1b"/><path d="m391 136c0-74.992188-60.5625-136-135-136s-135 61.007812-135 136c0 74.4375 60.5625 135 135 135s135-60.5625 135-135zm-152.773438 79.585938c-2.332031-6.21875-4.347656-13.085938-6.039062-20.4375 7.785156.558593 15.742188.851562 23.8125.851562s16.027344-.292969 23.8125-.855469c-1.691406 7.355469-3.707031 14.222657-6.039062 20.441407-7.777344 20.746093-15.632813 25.414062-17.773438 25.414062s-9.996094-4.667969-17.773438-25.414062zm-87.226562-79.585938c0-2.140625 4.667969-9.996094 25.414062-17.773438 6.222657-2.335937 13.089844-4.347656 20.445313-6.039062-.570313 7.871094-.859375 15.847656-.859375 23.8125 0 8.070312.292969 16.027344.855469 23.8125-7.355469-1.691406-14.222657-3.703125-20.441407-6.039062-20.746093-7.777344-25.414062-15.632813-25.414062-17.773438zm75 0c0-9.714844.476562-19.347656 1.378906-28.652344 9.210938-.882812 18.804688-1.347656 28.621094-1.347656s19.410156.464844 28.621094 1.347656c.902344 9.304688 1.378906 18.9375 1.378906 28.652344 0 9.824219-.464844 19.429688-1.351562 28.648438-9.21875.886718-18.824219 1.351562-28.648438 1.351562s-19.429688-.464844-28.648438-1.351562c-.886718-9.21875-1.351562-18.824219-1.351562-28.648438zm30-106c2.664062 0 10.511719 6.320312 17.753906 25.859375 2.34375 6.320313 4.378906 13.394531 6.089844 20.996094-7.792969-.558594-15.765625-.855469-23.84375-.855469s-16.050781.296875-23.84375.855469c1.710938-7.601563 3.746094-14.675781 6.089844-20.996094 7.242187-19.539063 15.089844-25.859375 17.753906-25.859375zm105 106c0 2.140625-4.667969 9.996094-25.414062 17.773438-6.21875 2.335937-13.085938 4.347656-20.441407 6.039062.5625-7.785156.855469-15.742188.855469-23.8125 0-7.964844-.289062-15.941406-.859375-23.8125 7.355469 1.691406 14.222656 3.703125 20.445313 6.039062 20.746093 7.777344 25.414062 15.632813 25.414062 17.773438zm-61.257812 95.445312c.71875-1.710937 1.425781-3.472656 2.121093-5.324218 3.894531-10.378906 7.03125-22.171875 9.359375-34.898438 12.726563-2.328125 24.515625-5.464844 34.894532-9.355468 1.855468-.695313 3.617187-1.40625 5.324218-2.125-10.488281 22.792968-28.90625 41.210937-51.699218 51.703124zm51.941406-139.085937c-1.78125-.753906-3.625-1.496094-5.5625-2.222656-10.378906-3.890625-22.167969-7.03125-34.890625-9.355469-2.746094-15.160156-6.667969-29.234375-11.742188-41.25 23.085938 10.644531 41.707031 29.488281 52.195313 52.828125zm-139.171875-52.832031c-5.074219 12.019531-8.996094 26.09375-11.742188 41.253906-12.722656 2.324219-24.511719 5.460938-34.890625 9.355469-1.9375.726562-3.777344 1.46875-5.5625 2.21875 10.488282-23.335938 29.109375-42.179688 52.195313-52.828125zm-51.953125 140.214844c1.707031.71875 3.46875 1.425781 5.320312 2.121093 10.378906 3.894531 22.171875 7.03125 34.898438 9.359375 2.328125 12.726563 5.464844 24.515625 9.359375 34.894532.691406 1.855468 1.402343 3.617187 2.121093 5.324218-22.792968-10.488281-41.210937-28.90625-51.699218-51.699218zm0 0" fill="#ffce1b"/></svg>
