<?xml version="1.0"?>
<svg xmlns="http://www.w3.org/2000/svg" height="512px" viewBox="0 -33 459.228 459" width="512px"><path d="m347.054688 341.804688c-18.855469 0-34.195313-15.34375-34.195313-34.199219 0-3.863281 3.132813-6.996094 6.996094-6.996094s6.996093 3.132813 6.996093 6.996094c0 11.140625 9.0625 20.203125 20.203126 20.203125 11.140624 0 20.207031-9.0625 20.207031-20.203125s-9.066407-20.203125-20.207031-20.203125c-18.855469 0-34.195313-15.34375-34.195313-34.199219s15.339844-34.195313 34.195313-34.195313c18.859374 0 34.199218 15.339844 34.199218 34.195313 0 3.867187-3.132812 7-6.996094 7-3.863281 0-6.996093-3.132813-6.996093-7 0-11.140625-9.066407-20.203125-20.207031-20.203125-11.140626 0-20.203126 9.0625-20.203126 20.203125s9.0625 20.207031 20.203126 20.207031c18.859374 0 34.199218 15.339844 34.199218 34.195313s-15.339844 34.199219-34.199218 34.199219zm0 0" fill="#ffce1b"/><path d="m347.054688 232.785156c-3.863282 0-6.996094-3.132812-6.996094-6.996094v-14.730468c0-3.863282 3.132812-6.996094 6.996094-6.996094 3.863281 0 6.996093 3.132812 6.996093 6.996094v14.730468c0 3.863282-3.132812 6.996094-6.996093 6.996094zm0 0" fill="#ffce1b"/><path d="m347.054688 357.984375c-3.863282 0-6.996094-3.132813-6.996094-6.996094v-16.203125c0-3.863281 3.132812-6.996094 6.996094-6.996094 3.863281 0 6.996093 3.132813 6.996093 6.996094v16.203125c0 3.863281-3.132812 6.996094-6.996093 6.996094zm0 0" fill="#ffce1b"/><path d="m347.054688 392.96875c-61.726563 0-111.945313-50.21875-111.945313-111.945312 0-61.726563 50.21875-111.945313 111.945313-111.945313 61.726562 0 111.945312 50.21875 111.945312 111.945313 0 61.726562-50.21875 111.945312-111.945312 111.945312zm0-209.898438c-54.007813 0-97.949219 43.941407-97.949219 97.953126 0 54.007812 43.941406 97.949218 97.949219 97.949218 54.011718 0 97.953124-43.941406 97.953124-97.949218 0-54.011719-43.941406-97.953126-97.953124-97.953126zm0 0" fill="#ffce1b"/><path d="m244.992188 312.550781h-198.015626c-25.902343 0-46.976562-21.074219-46.976562-46.976562v-218.5c0-25.902344 21.074219-46.9765628 46.976562-46.9765628h259.871094c25.902344 0 46.976563 21.0742188 46.976563 46.9765628v129c0 3.867187-3.132813 7-6.996094 7s-6.996094-3.132813-6.996094-7v-129c0-18.1875-14.796875-32.984375-32.984375-32.984375h-259.871094c-18.1875 0-32.984374 14.796875-32.984374 32.984375v218.5c0 18.1875 14.796874 32.984375 32.984374 32.984375h198.015626c3.863281 0 6.996093 3.132812 6.996093 6.996094 0 3.863281-3.132812 6.996093-6.996093 6.996093zm0 0" fill="#ffce1b"/><path d="m346.828125 95.394531h-339.832031c-3.863282 0-6.996094-3.132812-6.996094-6.996093 0-3.863282 3.132812-6.996094 6.996094-6.996094h339.832031c3.863281 0 6.996094 3.132812 6.996094 6.996094 0 3.863281-3.132813 6.996093-6.996094 6.996093zm0 0" fill="#ffce1b"/><path d="m100.328125 67.628906c-10.78125 0-19.554687-8.773437-19.554687-19.554687s8.773437-19.554688 19.554687-19.554688 19.554687 8.773438 19.554687 19.554688-8.773437 19.554687-19.554687 19.554687zm0-25.117187c-3.066406 0-5.5625 2.496093-5.5625 5.5625 0 3.066406 2.496094 5.5625 5.5625 5.5625s5.5625-2.496094 5.5625-5.5625c0-3.066407-2.496094-5.5625-5.5625-5.5625zm0 0" fill="#ffce1b"/><path d="m43.914062 67.453125c-10.78125 0-19.554687-8.773437-19.554687-19.554687 0-10.785157 8.773437-19.554688 19.554687-19.554688s19.554688 8.769531 19.554688 19.554688c0 10.78125-8.773438 19.554687-19.554688 19.554687zm0-25.117187c-3.066406 0-5.5625 2.496093-5.5625 5.5625 0 3.066406 2.496094 5.5625 5.5625 5.5625 3.066407 0 5.5625-2.496094 5.5625-5.5625 0-3.066407-2.496093-5.5625-5.5625-5.5625zm0 0" fill="#ffce1b"/><path d="m156.742188 67.804688c-10.78125 0-19.554688-8.769532-19.554688-19.554688 0-10.78125 8.773438-19.554688 19.554688-19.554688 10.785156 0 19.554687 8.773438 19.554687 19.554688 0 10.785156-8.769531 19.554688-19.554687 19.554688zm0-25.117188c-3.066407 0-5.5625 2.496094-5.5625 5.5625s2.496093 5.5625 5.5625 5.5625c3.070312 0 5.5625-2.496094 5.5625-5.5625s-2.492188-5.5625-5.5625-5.5625zm0 0" fill="#ffce1b"/></svg>
