<?xml version="1.0" encoding="iso-8859-1"?>
<!-- Generator: Adobe Illustrator 18.0.0, SVG Export Plug-In . SVG Version: 6.00 Build 0)  -->
<!DOCTYPE svg PUBLIC "-//W3C//DTD SVG 1.1//EN" "http://www.w3.org/Graphics/SVG/1.1/DTD/svg11.dtd">
<svg xmlns="http://www.w3.org/2000/svg" xmlns:xlink="http://www.w3.org/1999/xlink" version="1.1" id="Capa_1" x="0px" y="0px" viewBox="0 0 60 60" style="enable-background:new 0 0 60 60;" xml:space="preserve" width="512px" height="512px">
<g>
	<path d="M56,44.832c-0.43-4.107-3.853-7.332-7.954-7.332c-2.565,0-4.984,1.286-6.479,3.402c-0.292-0.051-0.588-0.076-0.884-0.076   c-2.32,0-4.381,1.577-5.066,3.813C33.709,45.77,32.5,47.88,32.5,50.142c0,3.506,2.785,6.358,6.208,6.358h10.774   c0.063,0,0.124-0.004,0.172-0.008c0.062,0.004,0.124,0.008,0.188,0.008h4.31c3.225,0,5.849-2.687,5.849-5.989   C60,47.911,58.358,45.638,56,44.832z M54.151,54.5L49.8,54.497l-0.186-0.006L38.708,54.5c-2.32,0-4.208-1.955-4.208-4.358   c0-1.666,0.948-3.21,2.417-3.935l0.435-0.214l0.102-0.475c0.331-1.56,1.689-2.692,3.229-2.692c0.344,0,0.687,0.057,1.019,0.169   l0.777,0.261l0.409-0.711c1.096-1.906,3.023-3.045,5.158-3.045c3.265,0,5.955,2.747,5.999,6.123l0.011,0.813l0.799,0.155   C56.677,46.946,58,48.594,58,50.511C58,52.71,56.273,54.5,54.151,54.5z" fill="#ffce1b"/>
	<path d="M29.5,50.142c0-2.913,1.362-5.679,3.658-7.452c1.305-2.82,4.02-4.68,7.064-4.851c1.081-1.113,2.374-1.968,3.777-2.537   v-0.435c0.229-0.28,0.47-0.599,0.719-0.951c1.239-1.75,2.232-3.698,2.954-5.799C49.084,27.47,50,26.075,50,24.5v-4   c0-0.963-0.36-1.896-1-2.625v-5.319c0.056-0.55,0.276-3.824-2.092-6.525C44.854,3.688,41.521,2.5,37,2.5s-7.854,1.188-9.908,3.53   c-1.435,1.637-1.918,3.481-2.064,4.805C23.314,9.949,21.294,9.5,19,9.5c-10.389,0-10.994,8.855-11,9v4.579   c-0.648,0.706-1,1.521-1,2.33v3.454c0,1.079,0.483,2.085,1.311,2.765c0.825,3.11,2.854,5.46,3.644,6.285v2.743   c0,0.787-0.428,1.509-1.171,1.915l-6.653,4.173C1.583,48.134,0,50.801,0,53.703V57.5h14h2h17.038   C30.888,55.785,29.5,53.128,29.5,50.142z M14,55.5H2v-1.797c0-2.17,1.183-4.164,3.089-5.203l0.053-0.029l0.052-0.032l6.609-4.146   c1.349-0.764,2.152-2.118,2.152-3.636v-2.743V37.11l-0.555-0.58c-0.558-0.583-2.435-2.698-3.156-5.415l-0.165-0.624L9.58,30.082   C9.211,29.78,9,29.335,9,28.863v-3.454c0-0.298,0.168-0.645,0.474-0.978L10,23.858v-0.779v-4.506c0.078-0.921,0.901-7.073,9-7.073   c2.392,0,4.408,0.552,6,1.644v4.73c-0.648,0.731-1,1.647-1,2.626v4c0,0.304,0.035,0.603,0.101,0.893   c0.199,0.867,0.687,1.646,1.393,2.214c0.001,0.001,0.002,0.002,0.003,0.003c0.006,0.023,0.014,0.043,0.019,0.066   c0.055,0.212,0.116,0.432,0.192,0.686l0.074,0.239c0.011,0.036,0.024,0.067,0.035,0.103c0.063,0.197,0.129,0.386,0.197,0.576   c0.031,0.088,0.06,0.184,0.092,0.27c0.06,0.162,0.117,0.303,0.173,0.444c0.048,0.12,0.096,0.236,0.146,0.353   c0.037,0.088,0.075,0.18,0.113,0.266l0.004-0.002c0.018,0.042,0.037,0.083,0.055,0.125l-0.004,0.002   c0.025,0.055,0.05,0.105,0.075,0.159c0.098,0.215,0.195,0.424,0.295,0.625c0.017,0.034,0.032,0.071,0.049,0.104   c0.027,0.053,0.054,0.097,0.08,0.149c0.156,0.305,0.31,0.591,0.463,0.86c0.018,0.031,0.034,0.06,0.052,0.091   c0.575,0.997,1.101,1.74,1.391,2.12L29,38.155c0,0.242-0.033,0.479-0.096,0.706c-0.188,0.68-0.644,1.267-1.282,1.615l-8.921,4.866   c-0.247,0.135-0.474,0.294-0.705,0.449c-0.108,0.072-0.225,0.133-0.329,0.21c-0.018,0.013-0.033,0.03-0.051,0.043   C15.361,47.731,14,50.393,14,53.262V55.5z" fill="#ffce1b"/>
</g>
<g>
</g>
<g>
</g>
<g>
</g>
<g>
</g>
<g>
</g>
<g>
</g>
<g>
</g>
<g>
</g>
<g>
</g>
<g>
</g>
<g>
</g>
<g>
</g>
<g>
</g>
<g>
</g>
<g>
</g>
</svg>
